# xmcd
#
# Track frame offsets: 
#        150
#        10698
#        23314
#        35173
#        46759
#        56538
#        67004
#        77193
#        88198
#        98913
#        108652
#        120779
#        130095
#        141812
#        151396
#        159558
#        169460
#        181780
#        194244
#        204967
#        217098
#        227680
#        239911
#        252117
#        261943
#        274469
#        286473
#
# Disc length: 3969 seconds
#
# Revision: 1
# Processed by: cddbd v1.5.2PL0 Copyright (c) Steve Scherf et al.
# Submitted via: ExactAudioCopy v0.95b2
#
DISCID=8b0f7f1b
DTITLE=Lloyd Price - Mr. Personality
DYEAR=2008
DGENRE=R&B
TTITLE0=Stagger Lee
TTITLE1=You Need Love
TTITLE2=Where Were You On Our Wedding Day
TTITLE3=Personality
TTITLE4=Have You Ever Had The Blues
TTITLE5=I'm Gonna Get Married
TTITLE6=Lady Luck
TTITLE7=Question
TTITLE8=Oh Oh Oh
TTITLE9=Mailman Blues
TTITLE10=Just Because
TTITLE11=Why
TTITLE12=What Do You Do To My Heart
TTITLE13=i Wish Your Picture Was You
TTITLE14=Lawdy Miss Clawdy
TTITLE15=Stagger Lee
TTITLE16=Talk To Me
TTITLE17=That's Why Tears Come And Go
TTITLE18=Ain't That Just Like A Woman
TTITLE19=Will You Love Me Tomorrow
TTITLE20=Shop Around
TTITLE21=At Last
TTITLE22=He Will Break Your Heart
TTITLE23=I Count The Tears
TTITLE24=Spanish Harlem
TTITLE25=Once In A While
TTITLE26=Corrine Corrina
EXTD=
EXTT0=
EXTT1=
EXTT2=
EXTT3=
EXTT4=
EXTT5=
EXTT6=
EXTT7=
EXTT8=
EXTT9=
EXTT10=
EXTT11=
EXTT12=
EXTT13=
EXTT14=
EXTT15=
EXTT16=
EXTT17=
EXTT18=
EXTT19=
EXTT20=
EXTT21=
EXTT22=
EXTT23=
EXTT24=
EXTT25=
EXTT26=
PLAYORDER=
